<?xml version="1.0" encoding="UTF-8" standalone="no"?>
<svg
   version="1.1"
   x="0"
   y="0"
   width="20"
   height="20"
   viewBox="0 0 20 20"
   id="svg11"
   xmlns="http://www.w3.org/2000/svg"
   xmlns:svg="http://www.w3.org/2000/svg">
  <defs
     id="defs15" />
  <path
     d="m 1.3063227,12.8408 c -0.9763729,2.067691 0.6706983,3.39226 2.5054784,3.634037 1.1790504,0.155369 1.5746357,-1.629668 2.8072924,-2.201773 -0.2419989,1.141082 -1.2291057,2.421965 -0.6680099,3.450309 0.8565204,1.569781 3.628904,1.731607 4.5673814,0.226236 1.357994,-2.1783 -1.5838758,-3.722639 -2.9038995,-5.513755 l 0.014028,-7.3583277 c 0,0 -0.4387106,-0.8881197 -1.4410935,0.8599737 v 6 C 3.5058019,11.728432 2.081285,11.199642 1.3063227,12.8408 Z m 1.4485974,0.178412 c 0.6556837,-0.59134 2.7842449,0.182091 2.7842449,0.182091 0,0 -1.1165133,2.280633 -2.0069871,2.032799 -0.91102,-0.253553 -1.9552162,-1.152528 -0.7772578,-2.21489 z M 9.233819,11.277251 9.193275,12.904976 14.767141,9.5547994 C 15.484375,7.5625 14.371412,8.0805185 14.371412,8.0805185 Z m -2.232425,5.938764 c -0.522164,-0.661611 1.0101284,-2.277439 1.0101284,-2.277439 0,0 1.8801455,1.252561 1.5162352,2.00831 -0.7970329,1.655234 -1.9954769,0.941792 -2.5263636,0.269129 z"
     fill="inherit"
     id="path9"
     style="stroke-width:1.00582" />
  <g
     id="g827">
    <path
       id="rect348"
       style="fill:#000000"
       d="M 2.46875,2.03125 V 8.5 a 0.5,0.5 45 0 0 0.5,0.5 H 3.5 A 0.5,0.5 135 0 0 4,8.5 v -5 A 0.5,0.5 135 0 1 4.5,3 h 5.34375 l 1,-1.46875 h -7.875 a 0.5,0.5 135 0 0 -0.5,0.5 z" />
    <path
       id="rect348-6"
       style="fill:#000000"
       d="M 16,1.53125 15,3 h 1.5 A 0.5,0.5 45 0 1 17,3.5 v 9.03125 a 0.5,0.5 135 0 1 -0.5,0.5 h -4 a 0.5,0.5 135 0 0 -0.5,0.5 v 0.5 a 0.5,0.5 45 0 0 0.5,0.5 h 5.625 c 0.276142,0 0.499629,-0.223857 0.499155,-0.499999 -0.0069,-3.999997 -0.01574,-8.0000285 -0.0011,-12.0000129 C 18.624057,1.755102 18.401142,1.53125 18.125,1.53125 Z" />
  </g>
  <g
     id="g534"
     transform="matrix(1.324125,0,-0.11519884,1.2955729,-4.8999174,-8.4489017)">
    <path
       style="fill:#000000"
       d="m 12.725811,10.057042 h 1.37565 l 1,-1.9999998 h -1.37565 z"
       id="path766" />
    <path
       style="fill:#000000"
       d="m 11.272821,13.057042 h 1.37565 l 1,-2 h -1.37565 z"
       id="path766-7" />
  </g>
</svg>
